HIERARCHY
ROOT joint_Root
{
	OFFSET 0.0 0.0 0.0
	CHANNELS 6 Xposition Yposition Zposition Zrotation Xrotation Yrotation 
	JOINT Hips
	{
		OFFSET 4.5925 91.4895 -427.239
		CHANNELS 6 Xposition Yposition Zposition Zrotation Xrotation Yrotation 
		JOINT Spine
		{
			OFFSET 15.7357 0.0 0.0
			CHANNELS 6 Xposition Yposition Zposition Zrotation Xrotation Yrotation 
			JOINT Chest
			{
				OFFSET 8.98455 -0.406207 0.0
				CHANNELS 6 Xposition Yposition Zposition Zrotation Xrotation Yrotation 
				JOINT Neck
				{
					OFFSET 16.3773 0.0 0.0
					CHANNELS 6 Xposition Yposition Zposition Zrotation Xrotation Yrotation 
					JOINT Head
					{
						OFFSET 6.45672 0.0 0.0
						CHANNELS 6 Xposition Yposition Zposition Zrotation Xrotation Yrotation 
						End Site
						{
							OFFSET 0.0 0.0 0.0
						}
					}
				}
				JOINT Shoulder_L
				{
					OFFSET 12.9942 -0.242716 4.98039
					CHANNELS 6 Xposition Yposition Zposition Zrotation Xrotation Yrotation 
					JOINT UpperArm_L
					{
						OFFSET 5.34809 0.0 0.0
						CHANNELS 6 Xposition Yposition Zposition Zrotation Xrotation Yrotation 
						JOINT LowerArm_L
						{
							OFFSET 24.3286 1.87007e-05 0.0
							CHANNELS 6 Xposition Yposition Zposition Zrotation Xrotation Yrotation 
							JOINT Hand_L
							{
								OFFSET 22.2916 0.0 0.0
								CHANNELS 6 Xposition Yposition Zposition Zrotation Xrotation Yrotation 
								End Site
								{
									OFFSET 0.0 0.0 0.0
								}
							}
						}
					}
				}
				JOINT Shoulder_R
				{
					OFFSET 12.9945 -0.242716 -4.98039
					CHANNELS 6 Xposition Yposition Zposition Zrotation Xrotation Yrotation 
					JOINT UpperArm_R
					{
						OFFSET -5.34813 0.0 0.0
						CHANNELS 6 Xposition Yposition Zposition Zrotation Xrotation Yrotation 
						JOINT LowerArm_R
						{
							OFFSET -24.3289 0.000322201 0.0
							CHANNELS 6 Xposition Yposition Zposition Zrotation Xrotation Yrotation 
							JOINT Hand_R
							{
								OFFSET -22.2915 -0.000108084 0.0
								CHANNELS 6 Xposition Yposition Zposition Zrotation Xrotation Yrotation 
								End Site
								{
									OFFSET 0.0 0.0 0.0
								}
							}
						}
					}
				}
			}
		}
		JOINT UpperLeg_L
		{
			OFFSET -2.19248 -6.46944 0.0
			CHANNELS 6 Xposition Yposition Zposition Zrotation Xrotation Yrotation 
			JOINT LowerLeg_L
			{
				OFFSET 39.0811 0.0 -1.23785e-05
				CHANNELS 6 Xposition Yposition Zposition Zrotation Xrotation Yrotation 
				JOINT Foot_L
				{
					OFFSET 40.9854 0.0 -1.26872e-05
					CHANNELS 6 Xposition Yposition Zposition Zrotation Xrotation Yrotation 
					JOINT Toes_L
					{
						OFFSET 11.7543 0.0 0.0
						CHANNELS 6 Xposition Yposition Zposition Zrotation Xrotation Yrotation 
						End Site
						{
							OFFSET 0.0 0.0 0.0
						}
					}
				}
			}
		}
		JOINT UpperLeg_R
		{
			OFFSET -2.19251 6.46944 0.0
			CHANNELS 6 Xposition Yposition Zposition Zrotation Xrotation Yrotation 
			JOINT LowerLeg_R
			{
				OFFSET -39.0811 -0.00228153 -0.0401928
				CHANNELS 6 Xposition Yposition Zposition Zrotation Xrotation Yrotation 
				JOINT Foot_R
				{
					OFFSET -40.9854 0.0 0.0
					CHANNELS 6 Xposition Yposition Zposition Zrotation Xrotation Yrotation 
					JOINT Toes_R
					{
						OFFSET -11.7543 0.0 0.0
						CHANNELS 6 Xposition Yposition Zposition Zrotation Xrotation Yrotation 
						End Site
						{
							OFFSET 0.0 0.0 0.0
						}
					}
				}
			}
		}
	}
}
MOTION
Frames:	9
Frame Time:	0.0333333
0.000000 0.000000 0.000000 0.000000 0.000000 -0.000000 -1.940620 90.715400 -0.568153 90.126500 -3.963000 13.004500 15.735700 0.000005 -0.000001 86.611500 79.887000 -86.249900 8.984550 -0.406207 -0.000000 12.430300 -1.169690 0.850553 16.377300 -0.000001 -0.000001 16.531400 -5.533340 4.840010 6.456720 -0.000001 -0.000000 8.797300 -6.232130 6.268600 12.994200 -0.242716 4.980390 -90.747900 3.165020 -76.697600 5.348090 -0.000007 -0.000001 -61.841200 40.637500 -22.604300 24.328600 0.000019 0.000005 8.411540 22.010300 -21.532400 22.291600 -0.000001 0.000005 6.209830 5.277510 0.694372 12.994500 -0.242716 -4.980390 88.756900 10.810400 -83.400400 -5.348130 -0.000001 -0.000004 -60.143000 34.799100 -14.213500 -24.328900 0.000322 -0.000009 1.346180 3.713550 -19.956500 -22.291500 -0.000108 -0.000004 11.899700 5.402160 -3.007780 -2.192480 -6.469440 -0.000000 -172.832000 -14.367900 3.088830 39.081100 -0.000007 -0.000012 -0.199010 0.336698 30.586100 40.985400 -0.000006 -0.000013 -0.544451 6.619650 -69.881000 11.754300 -0.000000 0.000003 -0.000178 -0.001676 -16.641000 -2.192510 6.469440 -0.000001 173.067000 20.941600 -175.959000 -39.081100 -0.002282 -0.040193 -0.188736 0.321789 30.828000 -40.985400 0.000008 0.000006 5.319430 15.597300 -71.782100 -11.754300 -0.000006 -0.000006 -0.001824 -0.026490 -17.650300
0.000000 0.000000 0.000000 0.000000 0.000000 -0.000000 -2.004290 90.715300 -0.638481 90.127000 -3.900210 12.936800 15.735700 0.000005 -0.000001 86.500700 79.925800 -86.107100 8.984550 -0.406207 -0.000000 12.351000 -1.202760 0.917289 16.377300 -0.000001 -0.000001 16.609800 -5.631290 4.907690 6.456720 -0.000001 -0.000000 8.735980 -6.359250 6.349010 12.994200 -0.242716 4.980390 -90.681700 2.886260 -76.705000 5.348090 -0.000007 -0.000001 -61.780200 40.524700 -22.925100 24.328600 0.000019 0.000005 8.498370 22.103600 -21.657900 22.291600 -0.000001 0.000005 6.214220 5.278710 0.661502 12.994500 -0.242716 -4.980390 88.768200 10.787800 -83.446400 -5.348130 -0.000001 -0.000004 -60.268300 34.651800 -14.114700 -24.328900 0.000322 -0.000009 1.351530 3.701840 -20.087600 -22.291500 -0.000108 -0.000004 12.007900 5.400730 -2.961060 -2.192480 -6.469440 -0.000000 -172.820000 -14.303400 2.943320 39.081100 -0.000007 -0.000012 -0.203108 0.343359 30.606000 40.985400 -0.000006 -0.000013 -0.586478 6.648740 -69.822500 11.754300 -0.000000 0.000003 -0.000185 -0.001737 -16.643200 -2.192510 6.469440 -0.000001 173.148000 20.971900 -176.087000 -39.081100 -0.002282 -0.040193 -0.192772 0.328178 30.856700 -40.985400 0.000008 0.000006 5.354360 15.534300 -71.767300 -11.754300 -0.000006 -0.000006 -0.001849 -0.026810 -17.663300
0.000000 0.000000 0.000000 0.000000 0.000000 -0.000000 -2.054420 90.730500 -0.706051 90.148300 -3.786490 12.849700 15.735700 0.000005 -0.000001 86.361500 79.972600 -85.949200 8.984550 -0.406207 -0.000000 12.255200 -1.245040 0.958279 16.377300 -0.000001 -0.000001 16.640100 -5.725460 4.975320 6.456720 -0.000001 -0.000000 8.723210 -6.425540 6.422920 12.994200 -0.242716 4.980390 -90.638600 2.704150 -76.707400 5.348090 -0.000007 -0.000001 -61.121000 40.399900 -23.636700 24.328600 0.000019 0.000005 8.770730 22.401200 -22.040500 22.291600 -0.000001 0.000005 5.941370 5.285190 0.483665 12.994500 -0.242716 -4.980390 88.771200 10.769000 -83.451400 -5.348130 -0.000001 -0.000004 -60.408900 34.608500 -14.054700 -24.328900 0.000322 -0.000009 1.323390 3.624080 -20.090800 -22.291500 -0.000108 -0.000004 11.960900 5.403510 -3.051750 -2.192480 -6.469440 -0.000000 -172.853000 -14.277100 2.806240 39.081100 -0.000007 -0.000012 -0.200383 0.339551 30.546900 40.985400 -0.000006 -0.000013 -0.593367 6.728740 -69.719500 11.754300 -0.000000 0.000003 -0.000179 -0.001690 -16.641500 -2.192510 6.469440 -0.000001 173.195000 21.077800 -176.196000 -39.081100 -0.002282 -0.040193 -0.191808 0.327059 30.818600 -40.985400 0.000008 0.000006 5.383590 15.494900 -71.717500 -11.754300 -0.000006 -0.000006 -0.001833 -0.026601 -17.654800
0.000000 0.000000 0.000000 0.000000 0.000000 -0.000000 -2.106630 90.739600 -0.775737 90.172600 -3.568290 12.809700 15.735700 0.000005 -0.000001 86.135800 79.994700 -85.700000 8.984550 -0.406207 -0.000000 12.206700 -1.319570 1.012570 16.377300 -0.000001 -0.000001 16.571500 -5.786700 5.029630 6.456720 -0.000001 -0.000000 8.705030 -6.425690 6.394000 12.994200 -0.242716 4.980390 -90.632200 2.679490 -76.720100 5.348090 -0.000007 -0.000001 -60.054700 39.634300 -24.542300 24.328600 0.000019 0.000005 9.682780 23.500900 -23.164800 22.291600 -0.000001 0.000005 5.345930 5.294190 0.234209 12.994500 -0.242716 -4.980390 88.782100 10.685400 -83.459200 -5.348130 -0.000001 -0.000004 -60.633000 34.552400 -13.996000 -24.328900 0.000322 -0.000009 1.341920 3.684760 -20.041200 -22.291500 -0.000108 -0.000004 11.873700 5.402590 -3.021960 -2.192480 -6.469440 -0.000000 -172.885000 -14.167300 2.698460 39.081100 -0.000007 -0.000012 -0.201028 0.341139 30.510600 40.985400 -0.000006 -0.000013 -0.604249 6.824710 -69.628200 11.754300 -0.000000 0.000003 -0.000183 -0.001714 -16.642400 -2.192510 6.469440 -0.000001 173.182000 21.308100 -176.242000 -39.081100 -0.002282 -0.040193 -0.188198 0.321169 30.805900 -40.985400 0.000008 0.000006 5.436080 15.511900 -71.696900 -11.754300 -0.000006 -0.000006 -0.001829 -0.026552 -17.652800
0.000000 0.000000 0.000000 0.000000 0.000000 -0.000000 -2.159990 90.751300 -0.842826 90.204000 -3.331590 12.734200 15.735700 0.000005 -0.000001 86.026300 80.030200 -85.566500 8.984550 -0.406207 -0.000000 12.133800 -1.352020 1.063090 16.377300 -0.000001 -0.000001 16.540500 -5.839320 5.049840 6.456720 -0.000001 -0.000000 8.580670 -6.454140 6.388860 12.994200 -0.242716 4.980390 -90.647600 2.725030 -76.627500 5.348090 -0.000007 -0.000001 -58.539700 38.433300 -25.854100 24.328600 0.000019 0.000005 10.389900 23.644800 -24.568200 22.291600 -0.000001 0.000005 5.220400 5.297810 0.133903 12.994500 -0.242716 -4.980390 88.780900 10.645600 -83.428500 -5.348130 -0.000001 -0.000004 -60.747000 34.651000 -13.912800 -24.328900 0.000322 -0.000009 1.260100 3.453050 -20.077900 -22.291500 -0.000108 -0.000004 11.962800 5.401180 -2.975940 -2.192480 -6.469440 -0.000000 -172.924000 -14.100600 2.549010 39.081100 -0.000007 -0.000012 -0.199791 0.339668 30.464100 40.985400 -0.000006 -0.000013 -0.598019 6.977180 -69.519800 11.754300 -0.000000 0.000003 -0.000179 -0.001686 -16.641300 -2.192510 6.469440 -0.000001 173.187000 21.496900 -176.323000 -39.081100 -0.002282 -0.040193 -0.186833 0.319178 30.782400 -40.985400 0.000008 0.000006 5.455940 15.447100 -71.663600 -11.754300 -0.000006 -0.000006 -0.001910 -0.027579 -17.694500
0.000000 0.000000 0.000000 0.000000 0.000000 -0.000000 -2.221810 90.761200 -0.902032 90.219700 -3.028400 12.662700 15.735700 0.000005 -0.000001 86.047600 80.049400 -85.544100 8.984550 -0.406207 -0.000000 12.096400 -1.340630 1.148740 16.377300 -0.000001 -0.000001 16.359600 -5.903590 4.998360 6.456720 -0.000001 -0.000000 8.556050 -6.556100 6.474310 12.994200 -0.242716 4.980390 -90.684200 2.864440 -76.561200 5.348090 -0.000007 -0.000001 -56.908400 36.394700 -27.347600 24.328600 0.000019 0.000005 11.060200 23.228500 -26.363700 22.291600 -0.000001 0.000005 5.137120 5.297960 0.129421 12.994500 -0.242716 -4.980390 88.763900 10.647700 -83.338900 -5.348130 -0.000001 -0.000004 -60.742300 34.695800 -13.855900 -24.328900 0.000322 -0.000009 1.285220 3.513370 -20.122800 -22.291500 -0.000108 -0.000004 11.802700 5.401820 -2.996540 -2.192480 -6.469440 -0.000000 -172.940000 -14.010400 2.403670 39.081100 -0.000007 -0.000012 -0.198294 0.337599 30.428700 40.985400 -0.000006 -0.000013 -0.579414 7.196340 -69.425000 11.754300 -0.000000 0.000003 -0.000179 -0.001687 -16.641400 -2.192510 6.469440 -0.000001 173.176000 21.815100 -176.364000 -39.081100 -0.002282 -0.040193 -0.184180 0.315135 30.749500 -40.985400 0.000008 0.000006 5.494530 15.411400 -71.645100 -11.754300 -0.000006 -0.000006 -0.001838 -0.026664 -17.657300
0.000000 0.000000 0.000000 0.000000 0.000000 -0.000000 -2.286200 90.769800 -0.962051 90.249600 -2.684670 12.642500 15.735700 0.000005 -0.000001 86.038500 80.020400 -85.484300 8.984550 -0.406207 -0.000000 12.154700 -1.345410 1.251530 16.377300 -0.000001 -0.000001 16.163700 -5.933030 4.999450 6.456720 -0.000001 -0.000000 8.392980 -6.669920 6.459520 12.994200 -0.242716 4.980390 -90.756500 3.111180 -76.325700 5.348090 -0.000007 -0.000001 -55.202400 33.558500 -29.184400 24.328600 0.000019 0.000005 11.838100 22.675300 -28.533600 22.291600 -0.000001 0.000005 5.183350 5.296660 0.165550 12.994500 -0.242716 -4.980390 88.743900 10.731700 -83.284300 -5.348130 -0.000001 -0.000004 -60.520900 34.647800 -13.900400 -24.328900 0.000322 -0.000009 1.304110 3.551260 -20.194500 -22.291500 -0.000108 -0.000004 11.882300 5.400240 -2.945190 -2.192480 -6.469440 -0.000000 -172.970000 -13.898000 2.293590 39.081100 -0.000007 -0.000012 -0.196722 0.335350 30.396900 40.985400 -0.000006 -0.000013 -0.559002 7.402720 -69.320700 11.754300 -0.000000 0.000003 -0.000185 -0.001732 -16.643000 -2.192510 6.469440 -0.000001 173.123000 22.094800 -176.342000 -39.081100 -0.002282 -0.040193 -0.186485 0.319370 30.721100 -40.985400 0.000008 0.000006 5.525850 15.380100 -71.638800 -11.754300 -0.000006 -0.000006 -0.001851 -0.026834 -17.664200
0.000000 0.000000 0.000000 0.000000 0.000000 -0.000000 -2.346890 90.772500 -1.006890 90.302800 -2.310210 12.742200 15.735700 0.000005 -0.000001 86.146200 79.944600 -85.558000 8.984550 -0.406207 -0.000000 12.308700 -1.316060 1.318100 16.377300 -0.000001 -0.000001 15.977700 -5.982060 5.103700 6.456720 -0.000001 -0.000000 8.202600 -6.696650 6.474410 12.994200 -0.242716 4.980390 -90.823200 3.329350 -76.103900 5.348090 -0.000007 -0.000001 -53.401500 30.339700 -31.374000 24.328600 0.000019 0.000005 12.553400 21.903400 -30.833600 22.291600 -0.000001 0.000005 5.460320 5.299620 0.082744 12.994500 -0.242716 -4.980390 88.704000 10.932200 -83.197300 -5.348130 -0.000001 -0.000004 -60.133400 34.607100 -13.991100 -24.328900 0.000322 -0.000009 1.325070 3.604340 -20.215400 -22.291500 -0.000108 -0.000004 11.907200 5.401000 -2.969840 -2.192480 -6.469440 -0.000000 -172.992000 -13.753000 2.320550 39.081100 -0.000007 -0.000012 -0.195696 0.334024 30.365300 40.985400 -0.000006 -0.000013 -0.538900 7.626280 -69.233200 11.754300 -0.000000 0.000003 -0.000171 -0.001622 -16.639000 -2.192510 6.469440 -0.000001 172.979000 22.428800 -176.196000 -39.081100 -0.002282 -0.040193 -0.186409 0.319141 30.729100 -40.985400 0.000008 0.000006 5.565920 15.352500 -71.658700 -11.754300 -0.000006 -0.000006 -0.001966 -0.028286 -17.723300
0.000000 0.000000 0.000000 0.000000 0.000000 -0.000000 -2.422310 90.772000 -1.050150 90.323300 -1.925660 12.794300 15.735700 0.000005 -0.000001 86.291000 79.878100 -85.648800 8.984550 -0.406207 -0.000000 12.445100 -1.271180 1.422920 16.377300 -0.000001 -0.000001 15.705100 -6.057740 5.125140 6.456720 -0.000001 -0.000000 8.202250 -6.752930 6.596390 12.994200 -0.242716 4.980390 -90.885100 3.546850 -75.978900 5.348090 -0.000007 -0.000001 -51.541400 26.870200 -33.805200 24.328600 0.000019 0.000005 13.237000 21.027600 -33.247600 22.291600 -0.000001 0.000005 5.655530 5.295850 0.188265 12.994500 -0.242716 -4.980390 88.662600 11.137700 -83.108800 -5.348130 -0.000001 -0.000004 -59.693000 34.476900 -14.184800 -24.328900 0.000322 -0.000009 1.372310 3.760540 -20.079300 -22.291500 -0.000108 -0.000004 11.832900 5.402000 -3.002660 -2.192480 -6.469440 -0.000000 -172.995000 -13.558600 2.274500 39.081100 -0.000007 -0.000012 -0.196728 0.335739 30.368700 40.985400 -0.000006 -0.000013 -0.532815 7.831660 -69.158600 11.754300 -0.000000 0.000003 -0.000177 -0.001674 -16.640900 -2.192510 6.469440 -0.000001 172.904000 22.760900 -176.097000 -39.081100 -0.002282 -0.040193 -0.184140 0.315262 30.734000 -40.985400 0.000008 0.000006 5.609410 15.297600 -71.679800 -11.754300 -0.000006 -0.000006 -0.001844 -0.026748 -17.660800
